<?xml version="1.0" encoding="utf-8"?>
<!-- Generator: Adobe Illustrator 24.1.3, SVG Export Plug-In . SVG Version: 6.00 Build 0)  -->
<svg version="1.1" id="Capa_1" xmlns="http://www.w3.org/2000/svg" xmlns:xlink="http://www.w3.org/1999/xlink" x="0px" y="0px"
	 viewBox="0 0 512 512" style="enable-background:new 0 0 512 512;" xml:space="preserve">
<style type="text/css">
	.st0{fill:#FFFFFF;}
</style>
<g>
	<path class="st0" d="M473.4,55.7H332.8V38.6c0-13.6-11.1-24.6-24.6-24.6H203.8c-13.6,0-24.6,11.1-24.6,24.6v17.1H38.6
		C17.3,55.7,0,73.1,0,94.4v268.9c0,21.3,17.3,38.6,38.6,38.6h305.2l44.4,76.9c10.6,18.3,34,24.7,52.4,14
		c18.3-10.6,24.6-34.1,14-52.4l-22.2-38.5h40.9c21.3,0,38.6-17.3,38.6-38.6V94.4C512,73.1,494.7,55.7,473.4,55.7L473.4,55.7z
		 M199.2,38.6c0-2.6,2.1-4.6,4.6-4.6h104.3c2.6,0,4.6,2.1,4.6,4.6v16.5H199.2L199.2,38.6z M298.4,266.8
		C298.4,266.7,298.4,266.7,298.4,266.8c1-14.4,5-16.1,16.9-10.5c15.6,7.2,20,18.1,25,26l-31.8,18.4
		C303.5,291.8,297.3,282.8,298.4,266.8L298.4,266.8z M362.6,280.9c-7.3-10.3-11.8-28.7-36-41.4c-10.9-5.7-21.8-8.9-32.6-3.3
		c0,0-0.1,0-0.1,0.1c-11.2,5.8-14.6,16.5-15.5,29.1c-2,27.9,13.1,44.1,17.7,53.9c0,0,0,0,0,0l13.7,23.7H131.3c-3.7,0-6.7-3-6.7-6.7
		V121.4c0-3.7,3-6.7,6.7-6.7H440c6.6,0,11.9,5.3,11.9,11.9V331c0,6.6-5.3,11.9-11.9,11.9h-41.6C398.2,342.5,401.1,347.6,362.6,280.9
		z M416.7,477.4c-4.7-1.3-8.7-4.3-11.2-8.6c-8.7-15.1-78.4-135.7-87.1-150.9l31.8-18.4c8.8,15.2,78.3,135.6,87.1,150.9
		C445.5,464.5,432.5,481.6,416.7,477.4z M492,363.2c0,10.3-8.4,18.6-18.6,18.6h-52.4l-10.9-19h30c17.6,0,31.9-14.3,31.9-31.9V126.6
		c0-17.6-14.3-31.9-31.9-31.9H131.3c-14.7,0-26.7,12-26.7,26.7v214.8c0,14.7,12,26.7,26.7,26.7h190l10.9,19H38.6
		c-10.3,0-18.6-8.4-18.6-18.6V94.4c0-10.3,8.4-18.6,18.6-18.6h434.7c10.3,0,18.6,8.4,18.6,18.6L492,363.2L492,363.2z"/>
	<path class="st0" d="M151,200.7c-5.5,0-10,4.5-10,10v80.2c0,5.5,4.5,10,10,10s10-4.5,10-10v-80.2C161,205.1,156.5,200.7,151,200.7
		L151,200.7z"/>
	<path class="st0" d="M151,160.7c-5.5,0-10,4.5-10,10s4.5,10,10,10s10-4.5,10-10v0C161,165.1,156.5,160.7,151,160.7z"/>
	<path class="st0" d="M63.4,195.4c-18.4,0-33.4,15-33.4,33.4s15,33.4,33.4,33.4s33.4-15,33.4-33.4S81.8,195.4,63.4,195.4L63.4,195.4
		z M63.4,242.2c-7.4,0-13.4-6-13.4-13.4s6-13.4,13.4-13.4c7.4,0,13.4,6,13.4,13.4S70.8,242.2,63.4,242.2z"/>
	<path class="st0" d="M57.3,166.5h8.9c15.6,0,28.4-12.7,28.4-28.4c0-15.6-12.7-28.4-28.4-28.4h-8.9c-15.6,0-28.4,12.7-28.4,28.4
		C28.9,153.7,41.7,166.5,57.3,166.5z M57.3,129.7h8.9c4.6,0,8.4,3.8,8.4,8.4s-3.8,8.4-8.4,8.4h-8.9c-4.6,0-8.4-3.8-8.4-8.4
		S52.7,129.7,57.3,129.7z"/>
	<path class="st0" d="M66.2,291.2h-8.9c-15.6,0-28.4,12.7-28.4,28.4c0,15.6,12.7,28.4,28.4,28.4h8.9c15.6,0,28.4-12.7,28.4-28.4
		C94.6,303.9,81.9,291.2,66.2,291.2z M66.2,327.9h-8.9c-4.6,0-8.4-3.8-8.4-8.4s3.8-8.4,8.4-8.4h8.9c4.6,0,8.4,3.8,8.4,8.4
		S70.8,327.9,66.2,327.9z"/>
</g>
</svg>
