<?xml version="1.0" encoding="utf-8"?>
<!-- Generator: Adobe Illustrator 24.1.3, SVG Export Plug-In . SVG Version: 6.00 Build 0)  -->
<svg version="1.1" id="Capa_1" xmlns="http://www.w3.org/2000/svg" xmlns:xlink="http://www.w3.org/1999/xlink" x="0px" y="0px"
	 viewBox="0 0 512 512" style="enable-background:new 0 0 512 512;" xml:space="preserve">
<style type="text/css">
	.st0{fill:#FFFFFF;}
</style>
<g>
	<path class="st0" d="M366.5,239.2c-46.3-38.7-72.1-91.3-85.5-128.7c-8.5-23.7-42-23.7-50.6,0c-13.4,37.3-39.2,90-85.5,128.7
		c-15.1,12.6-17.2,35.1-4.4,50c35.1,41,45,90.3,45.7,93.8l14.9,120.2c0.6,5,4.9,8.8,9.9,8.8h89.4c5,0,9.3-3.8,9.9-8.8L325.2,383
		c0.7-3.6,10.7-52.9,45.7-93.8C383.6,274.3,381.6,251.9,366.5,239.2L366.5,239.2z M291.5,492h-71.7l-12.5-100.5H304L291.5,492z
		 M255.7,298.2c-9.6,0-17.3-7.8-17.3-17.3s7.8-17.3,17.3-17.3s17.3,7.8,17.3,17.3S265.2,298.2,255.7,298.2z M355.7,276.2
		c-31.2,36.5-44.1,77.9-48.4,95.3h-41.6v-54.7c15.7-4.4,27.3-18.8,27.3-36c0-20.6-16.7-37.3-37.3-37.3s-37.3,16.7-37.3,37.3
		c0,17.1,11.6,31.6,27.3,36v54.7h-41.6c-4.3-17.4-17.2-58.8-48.4-95.3c-5.6-6.5-4.5-16.2,2.1-21.6C207.5,213,235,157,249.2,117.3
		c2.2-6.1,10.7-6.1,12.9,0c14.3,39.7,41.7,95.7,91.5,137.3C360.1,260,361.3,269.7,355.7,276.2L355.7,276.2z"/>
	<path class="st0" d="M463.3,6.6c-13.5,0-25,8.4-29.7,20.1H292.4v-3.2c0-12.9-10.5-23.5-23.5-23.5h-26.5C229.5,0,219,10.5,219,23.5
		v3.2H78.4C73.7,14.9,62.2,6.6,48.7,6.6c-17.6,0-32,14.4-32,32s14.4,32,32,32c14.8,0,27.3-10.2,31-23.9h99
		c-36.4,18.1-64.5,48.1-80.5,83.7h-5.3c-12.9,0-23.5,10.5-23.5,23.5v26.5c0,12.9,10.5,23.5,23.5,23.5h26.5
		c12.9,0,23.5-10.5,23.5-23.5v-26.5c0-12.6-10-22.9-22.4-23.5c19.6-37.3,54.8-66.7,98.9-77.5c1.5,11.5,11.4,20.4,23.3,20.4h26.5
		c11.9,0,21.8-8.9,23.3-20.4c42.3,10.4,78.6,39,98.8,77.5c-12.5,0.6-22.4,10.9-22.4,23.5v26.5c0,12.9,10.5,23.5,23.5,23.5h26.5
		c12.9,0,23.5-10.5,23.5-23.5v-26.5c0-12.9-10.5-23.5-23.5-23.5h-5.3c-15.8-35-43.5-65.3-80.5-83.7h99.6c3.6,13.7,16.1,23.9,31,23.9
		c17.6,0,32-14.4,32-32S480.9,6.6,463.3,6.6L463.3,6.6z M122.8,153.9v26.5c0,1.9-1.6,3.5-3.5,3.5H92.8c-1.9,0-3.5-1.6-3.5-3.5v-26.5
		c0-1.9,1.6-3.5,3.5-3.5h26.5C121.2,150.5,122.8,152,122.8,153.9z M422.1,153.9v26.5c0,1.9-1.6,3.5-3.5,3.5h-26.5
		c-1.9,0-3.5-1.6-3.5-3.5v-26.5c0-1.9,1.6-3.5,3.5-3.5h26.5C420.5,150.5,422.1,152,422.1,153.9z M48.7,50.6c-6.6,0-12-5.4-12-12
		s5.4-12,12-12s12,5.4,12,12S55.3,50.6,48.7,50.6z M272.4,49.9c0,1.9-1.6,3.5-3.5,3.5h-26.5c-1.9,0-3.5-1.6-3.5-3.5V23.5
		c0-1.9,1.6-3.5,3.5-3.5h26.5c1.9,0,3.5,1.6,3.5,3.5V49.9z M463.3,50.6c-6.6,0-12-5.4-12-12s5.4-12,12-12s12,5.4,12,12
		S469.9,50.6,463.3,50.6z"/>
	<path class="st0" d="M243.2,188.9c-5-2.3-11-0.1-13.3,4.9c-18.1,39.3-48.7,61.1-49.1,61.4c-4.5,3.2-5.6,9.4-2.5,13.9
		c3.2,4.5,9.4,5.6,13.9,2.5c1.4-1,35.3-24.9,55.8-69.5C250.4,197.2,248.2,191.2,243.2,188.9z"/>
	<path class="st0" d="M253,157.2c-5.5,0-10,4.5-10,10s4.5,10,10,10h0c5.5,0,10-4.5,10-10S258.5,157.2,253,157.2z"/>
</g>
</svg>
