<?xml version="1.0" encoding="utf-8"?>
<!-- Generator: Adobe Illustrator 24.1.3, SVG Export Plug-In . SVG Version: 6.00 Build 0)  -->
<svg version="1.1" id="Capa_1" xmlns="http://www.w3.org/2000/svg" xmlns:xlink="http://www.w3.org/1999/xlink" x="0px" y="0px"
	 viewBox="0 0 512 512" style="enable-background:new 0 0 512 512;" xml:space="preserve">
<style type="text/css">
	.st0{fill:#FFFFFF;}
</style>
<g>
	<path class="st0" d="M271,15c0-8.3-6.7-15-15-15s-15,6.7-15,15v31c0,8.3,6.7,15,15,15s15-6.7,15-15V15z"/>
	<path class="st0" d="M271,106c0-8.3-6.7-15-15-15s-15,6.7-15,15v30c0,8.3,6.7,15,15,15s15-6.7,15-15V106z"/>
	<path class="st0" d="M271,196c0-8.3-6.7-15-15-15s-15,6.7-15,15v30c0,8.3,6.7,15,15,15s15-6.7,15-15V196z"/>
	<path class="st0" d="M271,286c0-8.3-6.7-15-15-15s-15,6.7-15,15v30c0,8.3,6.7,15,15,15s15-6.7,15-15V286z"/>
	<path class="st0" d="M271,376c0-8.3-6.7-15-15-15s-15,6.7-15,15v30c0,8.3,6.7,15,15,15s15-6.7,15-15V376z"/>
	<path class="st0" d="M271,466c0-8.3-6.7-15-15-15s-15,6.7-15,15v31c0,8.3,6.7,15,15,15s15-6.7,15-15V466z"/>
	<path class="st0" d="M8.6,419.6c5.2,2.5,11.5,1.7,16-2l181-150c3.4-2.8,5.4-7.1,5.4-11.5s-2-8.7-5.4-11.5l-181-150
		c-4.5-3.7-10.7-4.5-16-2C3.4,94.9,0,100.2,0,106v300C0,411.8,3.4,417.1,8.6,419.6z M30,137.9L172.5,256L30,374.1V137.9z"/>
	<path class="st0" d="M306.4,267.5l181,150c4.5,3.7,10.7,4.5,16,2c5.3-2.5,8.6-7.8,8.6-13.6V106c0-5.8-3.4-11.1-8.6-13.6
		c-5.3-2.5-11.5-1.7-16,2l-181,150c-3.4,2.8-5.4,7.1-5.4,11.5S303,264.7,306.4,267.5z M482,137.9v236.2L339.5,256L482,137.9z"/>
</g>
</svg>
