<svg id="Capa_1" enable-background="new 0 0 512 512" height="512" viewBox="0 0 512 512" width="512" xmlns="http://www.w3.org/2000/svg"><g><path d="m211 256c33.084 0 60-26.916 60-60s-26.916-60-60-60-60 26.916-60 60 26.916 60 60 60zm0-90c16.542 0 30 13.458 30 30s-13.458 30-30 30-30-13.458-30-30 13.458-30 30-30z"/><path d="m26.372 476.061c11.074 3.589 26.727 6.831 46.524 9.634 4.17.592 8.56-.592 11.938-3.526 3.281-2.849 5.165-6.98 5.165-11.326v-26.521c44.042-5.314 103.546-8.322 166.001-8.322s121.959 3.008 166 8.323v26.521c0 4.345 1.884 8.477 5.165 11.326 3.284 2.852 7.643 4.136 11.938 3.526 19.798-2.804 35.451-6.045 46.524-9.634 7.214-2.339 26.373-8.548 26.373-25.062v-390c0-16.514-19.159-22.723-26.372-25.061-11.074-3.589-26.727-6.831-46.524-9.634-4.302-.61-8.657.676-11.938 3.526-3.281 2.849-5.165 6.98-5.165 11.326v26.521c-44.042 5.314-103.546 8.322-166.001 8.322s-121.959-3.008-166-8.323v-26.521c0-4.345-1.884-8.477-5.165-11.326s-7.633-4.137-11.938-3.526c-19.798 2.804-35.451 6.045-46.524 9.634-7.214 2.339-26.373 8.548-26.373 25.062v390c0 16.514 19.159 22.723 26.372 25.061zm229.628-70.061c-61.898 0-121.147 2.928-166 8.118v-127.748c122.665 5.84 201.931 83.561 332 89.289v38.459c-44.853-5.19-104.102-8.118-166-8.118zm166-60.37c-46.615-2.219-86.316-14.548-125.655-29.678 38.215-14.738 78.664-27.319 125.655-29.578zm30-286.889c17.747 3.215 26.217 6.15 30 7.833v378.853c-3.783 1.683-12.253 4.617-30 7.833zm-196 47.259c61.898 0 121.147-2.928 166-8.118v158.462c-64.79 2.884-118.34 23.93-166.025 43.456-50.137-20.35-102.181-40.65-165.975-43.459v-158.459c44.853 5.19 104.102 8.118 166 8.118zm-226-39.426c3.783-1.683 12.253-4.617 30-7.833v394.518c-17.747-3.215-26.217-6.15-30-7.833z"/></g></svg>