<?xml version="1.0" encoding="utf-8"?>
<!-- Generator: Adobe Illustrator 24.1.3, SVG Export Plug-In . SVG Version: 6.00 Build 0)  -->
<svg version="1.1" id="Capa_1" xmlns="http://www.w3.org/2000/svg" xmlns:xlink="http://www.w3.org/1999/xlink" x="0px" y="0px"
	 viewBox="0 0 512 512" style="enable-background:new 0 0 512 512;" xml:space="preserve">
<style type="text/css">
	.st0{fill:#FFFFFF;}
</style>
<g>
	<path class="st0" d="M355.2,0c-56.2,0-141.1,0-198.3,0c-25.4,0-46,20.6-46,46v420c0,25.4,20.6,46,46,46h198.3c25.4,0,46-20.6,46-46
		V46C401.2,20.6,380.5,0,355.2,0L355.2,0z M318.5,20l-3.8,16.8c-1.6,7.1-7.8,12.1-15.1,12.1h-87.2c-7.3,0-13.5-5-15.1-12.1L193.5,20
		L318.5,20z M381.2,466c0,14.3-11.7,26-26,26H156.8c-14.3,0-26-11.7-26-26V46c0-14.3,11.7-26,26-26H173l4.8,21.3
		c3.7,16.3,17.9,27.6,34.6,27.6h87.2c16.7,0,30.9-11.4,34.6-27.6L339,20h16.1c14.3,0,26,11.7,26,26V466z"/>
	<path class="st0" d="M309.4,457.9H202.6c-5.5,0-10,4.5-10,10s4.5,10,10,10h106.8c5.5,0,10-4.5,10-10S314.9,457.9,309.4,457.9z"/>
	<path class="st0" d="M333.5,273h-155c-16.9,0-30.6,13.7-30.6,30.6v94.6c0,16.9,13.7,30.6,30.6,30.6h155c16.9,0,30.6-13.7,30.6-30.6
		v-94.6C364.1,286.7,350.4,273,333.5,273z M344.1,398.2c0,5.8-4.8,10.6-10.6,10.6h-155c-5.8,0-10.6-4.8-10.6-10.6v-94.6
		c0-5.8,4.8-10.6,10.6-10.6h155c5.8,0,10.6,4.8,10.6,10.6V398.2z"/>
	<path class="st0" d="M223.5,328.5c3.6-4.2,3.1-10.5-1-14.1c-4.2-3.6-10.5-3.1-14.1,1l-18.4,21.3c-7.5,8.7-7.5,21.8,0,30.6
		l18.4,21.3c3.6,4.2,9.9,4.6,14.1,1c4.2-3.6,4.6-9.9,1-14.1l-18.4-21.3c-1.1-1.3-1.1-3.2,0-4.4L223.5,328.5z"/>
	<path class="st0" d="M303.7,315.5c-3.6-4.2-9.9-4.6-14.1-1c-4.2,3.6-4.6,9.9-1,14.1l18.4,21.3c1.1,1.3,1.1,3.2,0,4.4l-18.4,21.3
		c-3.6,4.2-3.1,10.5,1,14.1c4.2,3.6,10.5,3.1,14.1-1l18.4-21.3c7.5-8.7,7.5-21.8,0-30.6L303.7,315.5z"/>
	<path class="st0" d="M264.2,305.1c-5.4-1-10.6,2.7-11.6,8.1l-13,73.1c-1,5.4,2.7,10.6,8.1,11.6c5.4,1,10.6-2.6,11.6-8.1l13-73.1
		C273.3,311.2,269.7,306,264.2,305.1z"/>
	<path class="st0" d="M333.5,90.2h-155c-16.9,0-30.6,13.7-30.6,30.6v94.6c0,16.9,13.7,30.6,30.6,30.6h155
		c16.9,0,30.6-13.7,30.6-30.6v-94.6C364.1,103.9,350.4,90.2,333.5,90.2z M344.1,215.4c0,5.8-4.8,10.6-10.6,10.6h-155
		c-5.8,0-10.6-4.8-10.6-10.6v-94.6c0-5.8,4.8-10.6,10.6-10.6h155c5.8,0,10.6,4.8,10.6,10.6V215.4z"/>
	<path class="st0" d="M306.4,126.5H205.6c-5.5,0-10,4.5-10,10s4.5,10,10,10h100.9c5.5,0,10-4.5,10-10S312,126.5,306.4,126.5z"/>
	<path class="st0" d="M306.4,158.1h-60.9c-5.5,0-10,4.5-10,10s4.5,10,10,10h60.9c5.5,0,10-4.5,10-10S312,158.1,306.4,158.1z"/>
	<path class="st0" d="M205.6,178.1L205.6,178.1c5.5,0,10-4.5,10-10s-4.5-10-10-10s-10,4.5-10,10S200.1,178.1,205.6,178.1
		L205.6,178.1z"/>
	<path class="st0" d="M306.4,189.7H205.6c-5.5,0-10,4.5-10,10s4.5,10,10,10h100.9c5.5,0,10-4.5,10-10S312,189.7,306.4,189.7z"/>
</g>
</svg>
