<?xml version="1.0" encoding="utf-8"?>
<!-- Generator: Adobe Illustrator 24.1.3, SVG Export Plug-In . SVG Version: 6.00 Build 0)  -->
<svg version="1.1" id="Capa_1" xmlns="http://www.w3.org/2000/svg" xmlns:xlink="http://www.w3.org/1999/xlink" x="0px" y="0px"
	 viewBox="0 0 512 512" style="enable-background:new 0 0 512 512;" xml:space="preserve">
<style type="text/css">
	.st0{fill:#FFFFFF;}
</style>
<g>
	<g>
		<g>
			<rect x="138.7" y="32" class="st0" width="21.3" height="21.3"/>
			<rect x="181.3" y="32" class="st0" width="21.3" height="21.3"/>
			<path class="st0" d="M508.9,205.8c-4.2-4.2-10.9-4.2-15.1,0L416,283.6V32c0-17.7-14.3-32-32-32H128c-17.7,0-32,14.3-32,32v85.3
				H32c-17.7,0-32,14.3-32,32v64c0,17.7,14.3,32,32,32h64V320H32c-17.7,0-32,14.3-32,32s14.3,32,32,32h64v32c0,17.7,14.3,32,32,32
				h123.6l-45.8,45.8c-2,2-3.1,4.7-3.1,7.5c0,5.9,4.8,10.7,10.7,10.7h288c5.9,0,10.7-4.8,10.7-10.7v-288
				C512,210.5,510.9,207.8,508.9,205.8z M128,21.3h256c5.9,0,10.7,4.8,10.7,10.7v32H117.3V32C117.3,26.1,122.1,21.3,128,21.3z
				 M21.3,213.3v-64c0-5.9,4.8-10.7,10.7-10.7h149.3c5.9,0,10.7,4.8,10.7,10.7v64c0,5.9-4.8,10.7-10.7,10.7h-32
				c-5.9,0-10.7,4.8-10.7,10.7v16.9l-24.5-24.5c-2-2-4.7-3.1-7.5-3.1H32C26.1,224,21.3,219.2,21.3,213.3z M266.7,341.3v21.3h-192
				v-21.3H266.7z M21.3,352c0-5.9,4.8-10.7,10.7-10.7h21.3v21.3H32C26.1,362.7,21.3,357.9,21.3,352z M128,426.7
				c-5.9,0-10.7-4.8-10.7-10.7v-32h160c1.7,0,3.3-0.4,4.7-1.1l0,0.1l42.7-21.3c2.1-1,3.8-2.7,4.8-4.8c2.6-5.3,0.5-11.7-4.8-14.3
				l-41.9-21c-1.6-1-3.5-1.5-5.5-1.5h-160v-59.6l24.5,24.5c2,2,4.7,3.1,7.5,3.1c5.9,0,10.7-4.8,10.7-10.7v-32h21.3
				c17.7,0,32-14.3,32-32v-64c0-17.7-14.3-32-32-32h-64v-32h277.3v219.6L272.9,426.7H128z M490.7,490.7h-21.3V480H448v10.7h-21.3
				V480h-21.3v10.7H384V480h-21.3v10.7h-21.3V480H320v10.7h-21.3V480h-21.3v10.7h-38.3l251.6-251.6V490.7z"/>
			<path class="st0" d="M320,469.3h138.7c5.9,0,10.7-4.8,10.7-10.7V320c0-2.8-1.1-5.5-3.1-7.5c-4.2-4.2-10.9-4.2-15.1,0L312.5,451.1
				c-2,2-3.1,4.7-3.1,7.5C309.3,464.6,314.1,469.3,320,469.3z M448,345.7V448H345.7L448,345.7z"/>
			<rect x="42.7" y="170.7" class="st0" width="21.3" height="21.3"/>
			<rect x="85.3" y="170.7" class="st0" width="85.3" height="21.3"/>
			<path class="st0" d="M362.7,128h-128v21.3H352v128H202.7v-10.7h-21.3V288c0,5.9,4.8,10.7,10.7,10.7h170.7
				c5.9,0,10.7-4.8,10.7-10.7V138.7C373.3,132.8,368.6,128,362.7,128z"/>
			<rect x="309.3" y="234.7" class="st0" width="21.3" height="21.3"/>
			<rect x="266.7" y="234.7" class="st0" width="21.3" height="21.3"/>
			<rect x="309.3" y="192" class="st0" width="21.3" height="21.3"/>
		</g>
	</g>
</g>
</svg>
