<?xml version="1.0" encoding="utf-8"?>
<!-- Generator: Adobe Illustrator 24.1.3, SVG Export Plug-In . SVG Version: 6.00 Build 0)  -->
<svg version="1.1" id="Capa_1" xmlns="http://www.w3.org/2000/svg" xmlns:xlink="http://www.w3.org/1999/xlink" x="0px" y="0px"
	 viewBox="0 0 512 512" style="enable-background:new 0 0 512 512;" xml:space="preserve">
<style type="text/css">
	.st0{fill:#FFFFFF;}
</style>
<g>
	<path class="st0" d="M111.6,111.3H64c-15,0-27.3,12.2-27.3,27.3v31.9c0,15,12.2,27.3,27.3,27.3h47.5c15,0,27.3-12.2,27.3-27.3
		v-31.9C138.8,123.6,126.6,111.3,111.6,111.3z M118.8,170.5c0,4-3.3,7.3-7.3,7.3H64c-4,0-7.3-3.3-7.3-7.3v-31.9c0-4,3.3-7.3,7.3-7.3
		h47.5c4,0,7.3,3.3,7.3,7.3V170.5z"/>
	<path class="st0" d="M236.3,139.6h-53.1c-14.7,0-26.6,11.9-26.6,26.6v33.3c0,14.7,11.9,26.6,26.6,26.6h53.1
		c14.7,0,26.6-11.9,26.6-26.6v-33.3C262.9,151.6,250.9,139.6,236.3,139.6L236.3,139.6z M242.9,199.5c0,3.6-3,6.6-6.6,6.6h-53.1
		c-3.6,0-6.6-3-6.6-6.6v-33.3c0-3.6,3-6.6,6.6-6.6h53.1c3.6,0,6.6,3,6.6,6.6L242.9,199.5z"/>
	<path class="st0" d="M511.9,314.2c0-13.7-11.2-24.9-24.9-24.9h-35.8c0-23.9,0-55.2,0-79c0-17.7-14.4-32.1-32.1-32.1h-37.6
		c0-8.5,0-81.3,0-95.4c0-26.4-21.5-47.8-47.8-47.8H47.8C21.5,35,0,56.4,0,82.8v178.6c0,26.4,21.5,47.8,47.8,47.8H154l-8.1,43.5
		h-26.4c-5.5,0-10,4.5-10,10s4.5,10,10,10h142.3c5.5,0,10-4.5,10-10s-4.5-10-10-10h-26.4l-8.1-43.5h50.8v79
		c0,17.7,14.4,32.1,32.1,32.1h86.8v31.7c0,13.7,11.2,24.9,24.9,24.9h65c13.7,0,24.9-11.2,24.9-24.9
		C511.9,398.4,512.1,433.3,511.9,314.2L511.9,314.2z M417.1,340.5h74.8v9.9h-30.7c-13.8,0-25.1,11.3-25.1,25.1v15.8
		c0,13.8,11.3,25.1,25.1,25.1h30.7v9.5h-74.8C417.1,406.9,417.1,360.4,417.1,340.5z M491.9,396.4h-30.7c-2.8,0-5.1-2.3-5.1-5.1
		v-15.8c0-2.8,2.3-5.1,5.1-5.1h30.7V396.4z M491.9,314.2v6.3h-74.8c0.2-5.3-0.5-7,0.8-9c0.9-1.3,2.4-2.2,4.1-2.2h65
		C489.7,309.3,491.9,311.5,491.9,314.2L491.9,314.2z M422,289.3c-13.7,0-24.9,11.1-24.9,24.9v44h-98.9c0-12.1,0-104.8,0-117.7h133
		v48.9C431,289.3,421.9,289.3,422,289.3L422,289.3z M431.2,210.3v10.1h-133v-10.1c0-6.7,5.4-12.1,12.1-12.1h108.8
		C425.8,198.2,431.2,203.6,431.2,210.3L431.2,210.3z M47.8,55h285.8c14,0,25.5,10.3,27.5,23.7h-25.8c-5.5,0-10,4.5-10,10
		s4.5,10,10,10h26.1v79.5h-51.2c-17.7,0-32.1,14.4-32.1,32.1v35.3H20V98.7h235.4c5.5,0,10-4.5,10-10s-4.5-10-10-10H20.3
		C22.3,65.3,33.9,55,47.8,55L47.8,55z M215.1,352.8h-48.8l8.1-43.5h32.7L215.1,352.8z M47.8,289.3c-14,0-25.5-10.3-27.5-23.7h257.9
		v23.7C251.3,289.3,75.6,289.3,47.8,289.3L47.8,289.3z M310.3,400.4c-6.7,0-12.1-5.4-12.1-12.1v-10.1h98.9v22.2H310.3z M487,457h-65
		c-2.7,0-4.9-2.2-4.9-4.9v-6.3h74.8v6.3C491.9,454.8,489.7,457,487,457z"/>
	<path class="st0" d="M295.4,98.7c5.5,0,10-4.5,10-10s-4.5-10-10-10h0c-5.5,0-10,4.5-10,10S289.9,98.7,295.4,98.7z"/>
	<path class="st0" d="M364.6,251.3h-33.8c-13.1,0-23.8,10.7-23.8,23.8v23.8c0,13.1,10.7,23.8,23.8,23.8h33.8
		c13.1,0,23.8-10.7,23.8-23.8v-23.8C388.4,262,377.7,251.3,364.6,251.3z M368.4,298.9c0,2.1-1.7,3.8-3.8,3.8h-33.8
		c-2.1,0-3.8-1.7-3.8-3.8v-23.8c0-2.1,1.7-3.8,3.8-3.8h33.8c2.1,0,3.8,1.7,3.8,3.8V298.9z"/>
</g>
</svg>
